<?xml version="1.0" encoding="UTF-8" standalone="no"?>
<!DOCTYPE svg PUBLIC "-//W3C//DTD SVG 1.1//EN"
 "http://www.w3.org/Graphics/SVG/1.1/DTD/svg11.dtd">
<!-- Generated by graphviz version 2.38.0 (20140413.2041)
 -->
<!-- Title: models_diagram Pages: 1 -->
<svg width="522pt" height="332pt"
 viewBox="0.00 0.00 521.72 332.00" xmlns="http://www.w3.org/2000/svg" xmlns:xlink="http://www.w3.org/1999/xlink">
<g id="graph0" class="graph" transform="scale(1 1) rotate(0) translate(4 328)">
<title>models_diagram</title>
<polygon fill="none" stroke="none" points="-4,4 -4,-328 517.725,-328 517.725,4 -4,4"/>
<!-- _diagram_info -->
<g id="node1" class="node"><title>_diagram_info</title>
<text text-anchor="start" x="48.1746" y="-295.6" font-family="Times,serif" font-size="13.00">Models diagram</text>
<text text-anchor="start" x="48.1746" y="-282.6" font-family="Times,serif" font-size="13.00">Date: Jul 18 2016 &#45; 20:34</text>
<text text-anchor="start" x="48.1746" y="-269.6" font-family="Times,serif" font-size="13.00">Migration version: 20160719002827</text>
<text text-anchor="start" x="48.1746" y="-256.6" font-family="Times,serif" font-size="13.00">Generated by RailRoady 1.5.1</text>
<text text-anchor="start" x="48.1746" y="-243.6" font-family="Times,serif" font-size="13.00">http://railroady.prestonlee.com</text>
</g>
<!-- Category -->
<g id="node2" class="node"><title>Category</title>
<path fill="none" stroke="black" d="M12,-86.5C12,-86.5 235.725,-86.5 235.725,-86.5 241.725,-86.5 247.725,-92.5 247.725,-98.5 247.725,-98.5 247.725,-160.5 247.725,-160.5 247.725,-166.5 241.725,-172.5 235.725,-172.5 235.725,-172.5 12,-172.5 12,-172.5 6,-172.5 0,-166.5 0,-160.5 0,-160.5 0,-98.5 0,-98.5 0,-92.5 6,-86.5 12,-86.5"/>
<text text-anchor="middle" x="123.862" y="-157.3" font-family="Times,serif" font-size="14.00">Category</text>
<polyline fill="none" stroke="black" points="0,-150.5 247.725,-150.5 "/>
<text text-anchor="start" x="8" y="-135.3" font-family="Times,serif" font-size="14.00">id :integer</text>
<text text-anchor="start" x="8" y="-121.3" font-family="Times,serif" font-size="14.00">name :character varying</text>
<text text-anchor="start" x="8" y="-107.3" font-family="Times,serif" font-size="14.00">created_at :timestamp without time zone</text>
<text text-anchor="start" x="8" y="-93.3" font-family="Times,serif" font-size="14.00">updated_at :timestamp without time zone</text>
</g>
<!-- Inventory -->
<g id="node5" class="node"><title>Inventory</title>
<ellipse fill="none" stroke="black" cx="256.862" cy="-18" rx="44.475" ry="18"/>
<text text-anchor="middle" x="256.862" y="-13.8" font-family="Times,serif" font-size="14.00">Inventory</text>
</g>
<!-- Category&#45;&gt;Inventory -->
<g id="edge1" class="edge"><title>Category&#45;&gt;Inventory</title>
<path fill="none" stroke="#ad427c" d="M181.18,-81.3096C198.213,-67.2863 216.065,-52.5885 230.151,-40.9918"/>
<ellipse fill="none" stroke="#ad427c" cx="177.991" cy="-83.9352" rx="4.00002" ry="4.00002"/>
<polygon fill="#ad427c" stroke="#ad427c" points="230.254,-40.9067 240.835,-38.0247 234.114,-37.7287 237.974,-34.5506 237.974,-34.5506 237.974,-34.5506 234.114,-37.7287 235.114,-31.0766 230.254,-40.9067 230.254,-40.9067"/>
</g>
<!-- User -->
<g id="node3" class="node"><title>User</title>
<path fill="none" stroke="black" d="M278,-223.5C278,-223.5 501.725,-223.5 501.725,-223.5 507.725,-223.5 513.725,-229.5 513.725,-235.5 513.725,-235.5 513.725,-311.5 513.725,-311.5 513.725,-317.5 507.725,-323.5 501.725,-323.5 501.725,-323.5 278,-323.5 278,-323.5 272,-323.5 266,-317.5 266,-311.5 266,-311.5 266,-235.5 266,-235.5 266,-229.5 272,-223.5 278,-223.5"/>
<text text-anchor="middle" x="389.862" y="-308.3" font-family="Times,serif" font-size="14.00">User</text>
<polyline fill="none" stroke="black" points="266,-301.5 513.725,-301.5 "/>
<text text-anchor="start" x="274" y="-286.3" font-family="Times,serif" font-size="14.00">id :integer</text>
<text text-anchor="start" x="274" y="-272.3" font-family="Times,serif" font-size="14.00">name :character varying</text>
<text text-anchor="start" x="274" y="-258.3" font-family="Times,serif" font-size="14.00">email :character varying</text>
<text text-anchor="start" x="274" y="-244.3" font-family="Times,serif" font-size="14.00">created_at :timestamp without time zone</text>
<text text-anchor="start" x="274" y="-230.3" font-family="Times,serif" font-size="14.00">updated_at :timestamp without time zone</text>
</g>
<!-- Work -->
<g id="node4" class="node"><title>Work</title>
<path fill="none" stroke="black" d="M278,-72.5C278,-72.5 501.725,-72.5 501.725,-72.5 507.725,-72.5 513.725,-78.5 513.725,-84.5 513.725,-84.5 513.725,-174.5 513.725,-174.5 513.725,-180.5 507.725,-186.5 501.725,-186.5 501.725,-186.5 278,-186.5 278,-186.5 272,-186.5 266,-180.5 266,-174.5 266,-174.5 266,-84.5 266,-84.5 266,-78.5 272,-72.5 278,-72.5"/>
<text text-anchor="middle" x="389.862" y="-171.3" font-family="Times,serif" font-size="14.00">Work</text>
<polyline fill="none" stroke="black" points="266,-164.5 513.725,-164.5 "/>
<text text-anchor="start" x="274" y="-149.3" font-family="Times,serif" font-size="14.00">id :integer</text>
<text text-anchor="start" x="274" y="-135.3" font-family="Times,serif" font-size="14.00">description :text</text>
<text text-anchor="start" x="274" y="-121.3" font-family="Times,serif" font-size="14.00">user_id :integer</text>
<text text-anchor="start" x="274" y="-107.3" font-family="Times,serif" font-size="14.00">created_at :timestamp without time zone</text>
<text text-anchor="start" x="274" y="-93.3" font-family="Times,serif" font-size="14.00">updated_at :timestamp without time zone</text>
<text text-anchor="start" x="274" y="-79.3" font-family="Times,serif" font-size="14.00">inventory_id :integer</text>
</g>
<!-- User&#45;&gt;Work -->
<g id="edge2" class="edge"><title>User&#45;&gt;Work</title>
<path fill="none" stroke="#9a63ee" d="M389.862,-215.168C389.862,-209.214 389.862,-203.127 389.862,-197.084"/>
<ellipse fill="none" stroke="#9a63ee" cx="389.862" cy="-219.234" rx="4" ry="4"/>
<polygon fill="#9a63ee" stroke="#9a63ee" points="389.862,-196.984 394.362,-186.984 389.862,-191.984 389.862,-186.984 389.862,-186.984 389.862,-186.984 389.862,-191.984 385.362,-186.984 389.862,-196.984 389.862,-196.984"/>
</g>
<!-- Work&#45;&gt;Inventory -->
<g id="edge3" class="edge"><title>Work&#45;&gt;Inventory</title>
<path fill="none" stroke="#60a48e" d="M315.444,-67.2306C303.431,-57.3405 291.768,-47.7383 282.053,-39.7397"/>
<ellipse fill="none" stroke="#60a48e" cx="318.716" cy="-69.9245" rx="4.00002" ry="4.00002"/>
<ellipse fill="#60a48e" stroke="#60a48e" cx="278.746" cy="-37.017" rx="4.00002" ry="4.00002"/>
</g>
</g>
</svg>
